<?xml version="1.0" standalone="no"?><!DOCTYPE svg PUBLIC "-//W3C//DTD SVG 1.1//EN" "http://www.w3.org/Graphics/SVG/1.1/DTD/svg11.dtd"><svg t="1556009290054" class="icon" style="" viewBox="0 0 1024 1024" version="1.1" xmlns="http://www.w3.org/2000/svg" p-id="15741" xmlns:xlink="http://www.w3.org/1999/xlink" width="200" height="200"><defs><style type="text/css"></style></defs><path d="M1004 705.6H20c-8.8 0-16-7.2-16-16V20c0-8.8 7.2-16 16-16h984c8.8 0 16 7.2 16 16v669.6c0 8.8-7.2 16-16 16z m-968-32h952V36H36v637.6z" p-id="15742"></path><path d="M512 621.6c-144 0-261.6-120-261.6-267.2S368 87.2 512 87.2s261.6 120 261.6 267.2S656 621.6 512 621.6z m0-518.4c-135.2 0-245.6 112.8-245.6 251.2 0 138.4 110.4 251.2 245.6 251.2s245.6-112.8 245.6-251.2C757.6 216 647.2 103.2 512 103.2z" p-id="15743"></path><path d="M512 621.6c-67.2 0-120-117.6-120-267.2s52.8-267.2 120-267.2 120 117.6 120 267.2c0 150.4-52.8 267.2-120 267.2z m0-518.4c-56.8 0-104 115.2-104 251.2s48 251.2 104 251.2 104-115.2 104-251.2-47.2-251.2-104-251.2z" p-id="15744"></path><path d="M764 362.4H258.4c-4.8 0-8-3.2-8-8s3.2-8 8-8h505.6c4.8 0 8 3.2 8 8s-3.2 8-8 8z" p-id="15745"></path><path d="M511.2 621.6c-4.8 0-8-3.2-8-8V96c0-4.8 3.2-8 8-8s8 3.2 8 8v517.6c0 4-3.2 8-8 8zM796.8 1020H227.2c-8.8 0-16-7.2-16-16v-135.2c0-8.8 7.2-16 16-16h568.8c8.8 0 16 7.2 16 16v135.2c0.8 8.8-6.4 16-15.2 16z m-553.6-32h536.8v-103.2H243.2v103.2z" p-id="15746"></path><path d="M701.6 884.8H322.4c-5.6 0-10.4-2.4-12.8-7.2-3.2-4-4-9.6-1.6-14.4l66.4-180c2.4-6.4 8-10.4 15.2-10.4h248c6.4 0 12.8 4 15.2 10.4l66.4 180c1.6 4.8 0.8 10.4-1.6 14.4-5.6 4.8-10.4 7.2-16 7.2z m-356.8-32h333.6L624 704.8H399.2l-54.4 148z" p-id="15747"></path><path d="M726.4 224H297.6c-4.8 0-8-3.2-8-8s3.2-8 8-8h428c4.8 0 8 3.2 8 8 0.8 4.8-3.2 8-7.2 8zM726.4 500.8H297.6c-4.8 0-8-3.2-8-8s3.2-8 8-8h428c4.8 0 8 3.2 8 8 0.8 4.8-3.2 8-7.2 8z" p-id="15748"></path></svg>