<?xml version="1.0" standalone="no"?><!DOCTYPE svg PUBLIC "-//W3C//DTD SVG 1.1//EN" "http://www.w3.org/Graphics/SVG/1.1/DTD/svg11.dtd"><svg t="1556009283826" class="icon" style="" viewBox="0 0 1024 1024" version="1.1" xmlns="http://www.w3.org/2000/svg" p-id="15608" xmlns:xlink="http://www.w3.org/1999/xlink" width="200" height="200"><defs><style type="text/css"></style></defs><path d="M512 1020c-8 0-16.8 0-25.6-0.8-117.6-5.6-230.4-52-317.6-130.4-12.8-11.2-24.8-23.2-36-36C60.8 774.4 16.8 677.6 4 572c-0.8-4 0.8-8.8 4-12 3.2-3.2 7.2-5.6 12-5.6h984c4.8 0 8.8 1.6 12 5.6 3.2 3.2 4.8 8 4 12.8-12.8 104.8-56.8 202.4-128.8 280.8-11.2 12.8-23.2 24.8-36 36-87.2 78.4-200 124.8-317.6 130.4H512z m-356-188.8c10.4 12 22.4 23.2 33.6 33.6 81.6 73.6 188 116.8 297.6 122.4 16 0.8 32 0.8 48 0 110.4-5.6 216-48.8 297.6-122.4 12-10.4 23.2-21.6 33.6-33.6 63.2-68.8 103.2-153.6 117.6-244.8H38.4c14.4 91.2 55.2 176 117.6 244.8z" p-id="15609"></path><path d="M512 948c-7.2 0-14.4 0-21.6-0.8-4.8 0-8-4-8-8 0-4.8 4-8 8-8 14.4 0.8 28 0.8 42.4 0 96.8-4.8 190.4-43.2 262.4-108 10.4-9.6 20.8-19.2 29.6-29.6 43.2-47.2 73.6-101.6 92-161.6 1.6-4 5.6-6.4 9.6-5.6 4 1.6 6.4 5.6 5.6 9.6-18.4 62.4-50.4 119.2-95.2 168a573.6 573.6 0 0 1-31.2 31.2c-75.2 67.2-172 107.2-272.8 112-6.4 0.8-13.6 0.8-20.8 0.8zM360 467.2H20c-4.8 0-8.8-1.6-12-5.6-3.2-3.2-4.8-8-4-12.8 11.2-92 48-179.2 105.6-252 3.2-3.2 7.2-5.6 12-6.4 4.8 0 8.8 1.6 12 4.8L371.2 440c4.8 4.8 5.6 11.2 3.2 17.6-2.4 5.6-8 9.6-14.4 9.6z m-321.6-32h283.2L124 232C80 292 50.4 361.6 38.4 435.2zM1004 467.2H527.2c-4 0-8.8-1.6-11.2-4.8l-318.4-328c-3.2-3.2-4.8-8-4.8-12 0-4.8 2.4-8.8 6.4-11.2 83.2-64 183.2-100.8 288-106.4 17.6-0.8 33.6-0.8 51.2 0 116.8 5.6 229.6 52 316.8 130.4 12.8 11.2 24.8 23.2 36 36 71.2 77.6 115.2 173.6 128 278.4 0.8 4.8-0.8 8.8-4 12.8-2.4 2.4-7.2 4.8-11.2 4.8z m-470.4-32h452c-14.4-90.4-55.2-174.4-117.6-242.4-10.4-12-22.4-23.2-33.6-33.6C752 85.6 646.4 41.6 536 36.8c-16-0.8-31.2-0.8-48 0-92.8 4-180.8 35.2-256 88.8l301.6 309.6z" p-id="15610"></path><path d="M924.8 395.2c-3.2 0-6.4-2.4-8-5.6-18.4-59.2-48.8-112.8-91.2-159.2-9.6-10.4-19.2-20-29.6-29.6-72-64.8-165.6-103.2-262.4-108-14.4-0.8-28-0.8-42.4 0C428 96 368 112 312 141.6c-4 2.4-8.8 0.8-11.2-3.2-2.4-4-0.8-8.8 3.2-11.2 57.6-30.4 120-48 185.6-51.2 15.2-0.8 28.8-0.8 44 0 100.8 4.8 197.6 44.8 272.8 112 11.2 9.6 21.6 20 31.2 31.2 44 48 76 104 94.4 165.6 1.6 4-0.8 8.8-5.6 9.6-0.8 0.8-0.8 0.8-1.6 0.8z" p-id="15611"></path></svg>