<?xml version="1.0" standalone="no"?><!DOCTYPE svg PUBLIC "-//W3C//DTD SVG 1.1//EN" "http://www.w3.org/Graphics/SVG/1.1/DTD/svg11.dtd"><svg t="1556009487548" class="icon" style="" viewBox="0 0 1024 1024" version="1.1" xmlns="http://www.w3.org/2000/svg" p-id="19276" xmlns:xlink="http://www.w3.org/1999/xlink" width="200" height="200"><defs><style type="text/css"></style></defs><path d="M865.6 1020H158.4c-34.4 0-65.6-16.8-84.8-45.6-11.2-16.8-17.6-36.8-17.6-56.8 0-50.4 37.6-94.4 88-100.8 4.8-0.8 9.6-0.8 13.6-0.8h707.2c4 0 8.8 0 13.6 0.8 50.4 7.2 88 50.4 88 100.8 0 20-5.6 40-17.6 56.8-17.6 28.8-49.6 45.6-83.2 45.6zM158.4 848c-3.2 0-5.6 0-9.6 0.8-34.4 4.8-60 34.4-60 69.6 0 13.6 4 27.2 12 39.2 12.8 19.2 34.4 31.2 58.4 31.2h707.2c23.2 0 44.8-12 58.4-31.2 8-11.2 12-24.8 12-39.2 0-34.4-25.6-64.8-60-69.6-4-0.8-6.4-0.8-9.6-0.8H158.4z" p-id="19277"></path><path d="M877.6 848.8h-2.4c-4-0.8-6.4-0.8-9.6-0.8H158.4c-3.2 0-5.6 0-9.6 0.8-5.6 0.8-11.2-1.6-15.2-6.4-3.2-4.8-4-11.2-1.6-16L497.6 13.6c2.4-5.6 8-9.6 14.4-9.6s12 4 14.4 9.6l365.6 812.8c2.4 5.6 1.6 11.2-1.6 16-3.2 4-8 6.4-12.8 6.4zM172 816h680L512 59.2 172 816z" p-id="19278"></path><path d="M685.6 414.4H338.4c-4.8 0-8-3.2-8-8s3.2-8 8-8h347.2c4.8 0 8 3.2 8 8s-3.2 8-8 8zM797.6 663.2H226.4c-4.8 0-8-3.2-8-8s3.2-8 8-8h571.2c4.8 0 8 3.2 8 8s-4 8-8 8z" p-id="19279"></path></svg>