<?xml version="1.0" standalone="no"?><!DOCTYPE svg PUBLIC "-//W3C//DTD SVG 1.1//EN" "http://www.w3.org/Graphics/SVG/1.1/DTD/svg11.dtd"><svg t="1556008905445" class="icon" style="" viewBox="0 0 1024 1024" version="1.1" xmlns="http://www.w3.org/2000/svg" p-id="2160" xmlns:xlink="http://www.w3.org/1999/xlink" width="200" height="200"><defs><style type="text/css"></style></defs><path d="M757.2 266.8C676.2 185.8 567.8 142 462.8 119.2L119.2 462.8C142 568 185.8 676.2 266.8 757.2c81 81 189.4 124.8 294.4 147.6l343.6-343.6c-22.8-105-66.6-213.4-147.6-294.4zM688.2 576l-38.4 38.4 29.6 29.6c9.8 9.8 9.8 25.4 0 35.2-9.8 9.8-25.4 9.8-35.2 0l-29.6-29.6-38.6 38.8c-4 4-9 6.8-14.6 7.8-8.4 1.4-16.8-1.4-22.6-7.2-3-3-5.2-6.6-6.4-10.6-2.8-9.8-0.2-19.4 6.4-26.2l39-39-31.2-31.2-38.6 38.6c-4.2 4.2-9.4 7-15.2 7.8-11 1.4-21.4-3.8-26.8-14-0.6-1.2-1.2-2.4-1.6-3.8-3-9.8-0.4-19.6 6.4-26.4l39-39-31-31.2-38.6 38.6c-4.2 4.2-9.4 7-15.2 7.8-11 1.4-21.4-3.8-26.8-14-0.6-1.2-1.2-2.4-1.6-3.8-3-9.8-0.4-19.6 6.4-26.4l39-39-31-31.2-38.6 38.6c-4.2 4.2-9.4 7-15.2 7.8-11 1.4-21.4-3.8-26.8-14-0.6-1.2-1.2-2.4-1.6-3.8-3-9.8-0.4-19.6 6.4-26.4l39-39-29.6-29.6c-9.8-9.8-9.8-25.4 0-35.2 9.8-9.8 25.4-9.8 35.2 0l29.6 29.6 38.6-38.6c4.2-4.2 9.4-7 15.2-7.8 11-1.4 21.4 3.8 26.8 14 0.6 1.2 1.2 2.4 1.6 3.8 3 9.8 0.4 19.6-6.4 26.4l-39 39 31.2 31.2 38.6-38.6c4-4 9-6.8 14.6-7.8 8.4-1.4 16.8 1.4 22.6 7.2 3 2.8 5.2 6.4 6.4 10.4 3 9.8 0.4 19.6-6.4 26.4L514 478.8l31.2 31.2 38.6-38.6c4.2-4.2 9.4-7 15.2-7.8 11-1.4 21.4 3.8 26.8 14 0.6 1.2 1.2 2.4 1.6 3.8 3 9.8 0.4 19.6-6.4 26.4L582 546.8l31.2 31.2 38.6-38.6c4.4-4.4 10-7.2 16-8 8.8-1 17.2 2.4 22.8 9.2 8.2 10 7 26.2-2.4 35.4z m102 352c55.2 0 97.6-3.6 117.6-5.8 7.4-0.8 13.4-6.8 14.2-14.2 4-37.8 13.6-155.2-6.4-287.4L620.6 915.8c62 9.4 120.8 12.2 169.6 12.2zM233.6 96C178.6 96 136 99.6 116 101.8c-7.4 0.8-13.4 6.8-14.2 14.2-4 37.8-13.6 155.2 6.4 287.2L403.2 108.2c-62-9.4-120.8-12.2-169.6-12.2z" p-id="2161" fill="#1b1b1b"></path></svg>