<?xml version="1.0" standalone="no"?><!DOCTYPE svg PUBLIC "-//W3C//DTD SVG 1.1//EN" "http://www.w3.org/Graphics/SVG/1.1/DTD/svg11.dtd"><svg t="1556009130528" class="icon" style="" viewBox="0 0 1024 1024" version="1.1" xmlns="http://www.w3.org/2000/svg" p-id="5701" xmlns:xlink="http://www.w3.org/1999/xlink" width="200" height="200"><defs><style type="text/css"></style></defs><path d="M896 640H160c-16 0-32-12.8-32-32 0-16 12.8-32 32-32h736c16 0 32 12.8 32 32s-12.8 32-32 32z" fill="#333333" p-id="5702"></path><path d="M288 736m-48 0a48 48 0 1 0 96 0 48 48 0 1 0-96 0Z" fill="#333333" p-id="5703"></path><path d="M736 736m-48 0a48 48 0 1 0 96 0 48 48 0 1 0-96 0Z" fill="#333333" p-id="5704"></path><path d="M768 192H256c-19.2 0-32-12.8-32-32 0-16 12.8-32 32-32h512c16 0 32 12.8 32 32s-12.8 32-32 32z" fill="#333333" p-id="5705"></path><path d="M832 0H192C137.6 0 96 41.6 96 96v736c0 54.4 41.6 96 96 96h64v-32c0-19.2-12.8-32-32-32H192c-19.2 0-32-12.8-32-32V96c0-19.2 12.8-32 32-32h640c19.2 0 32 12.8 32 32v352c0 19.2 12.8 32 32 32s32-12.8 32-32V96c0-54.4-41.6-96-96-96zM320 960H288c-19.2 0-32-12.8-32-32H192c0 54.4 41.6 96 96 96h32c54.4 0 96-41.6 96-96h-64c0 19.2-12.8 32-32 32zM768 896v32c0 19.2-12.8 32-32 32h-32c-19.2 0-32-12.8-32-32v-32c0-19.2-12.8-32-32-32h-32v64c0 54.4 41.6 96 96 96h32c54.4 0 96-41.6 96-96v-64h-32c-19.2 0-32 12.8-32 32z" fill="#333333" p-id="5706"></path><path d="M384 864c-19.2 0-32 12.8-32 32v32h320v-32c0-19.2-12.8-32-32-32h-256zM896 576v32c-19.2 0-32-19.2-32 0v224c0 19.2-12.8 32-32 32h-32c-19.2 0-32 12.8-32 32v32h64c54.4 0 96-41.6 96-96v-224c0-19.2-12.8-32-32-32z" fill="#333333" p-id="5707"></path></svg>