<?xml version="1.0" standalone="no"?><!DOCTYPE svg PUBLIC "-//W3C//DTD SVG 1.1//EN" "http://www.w3.org/Graphics/SVG/1.1/DTD/svg11.dtd"><svg t="1556009521006" class="icon" style="" viewBox="0 0 1024 1024" version="1.1" xmlns="http://www.w3.org/2000/svg" p-id="20740" xmlns:xlink="http://www.w3.org/1999/xlink" width="200" height="200"><defs><style type="text/css"></style></defs><path d="M543.402667 205.056l332.1344 0 0 615.236267-332.1344 0 0-615.236267Z" fill="#996E28" p-id="20741"></path><path d="M337.92 653.4656l127.761067 0 0 58.487467-127.761067 0 0-58.487467Z" fill="#D5382E" p-id="20742"></path><path d="M459.093333 717.090133h-114.551466a11.741867 11.741867 0 0 1-11.7248-11.7248v-45.277866a11.741867 11.741867 0 0 1 11.741866-11.7248H459.093333a11.741867 11.741867 0 0 1 11.7248 11.7248v45.2608a11.741867 11.741867 0 0 1-11.7248 11.741866z m-114.551466-58.487466a1.501867 1.501867 0 0 0-1.4848 1.4848v45.2608a1.501867 1.501867 0 0 0 1.501866 1.501866H459.093333a1.501867 1.501867 0 0 0 1.4848-1.4848v-45.277866a1.501867 1.501867 0 0 0-1.4848-1.4848z" fill="#E8D4AB" p-id="20743"></path><path d="M224.8704 711.150933l353.877333 0 0 28.3648-353.877333 0 0-28.3648Z" fill="#D5382E" p-id="20744"></path><path d="M571.0848 744.6528H232.533333a12.8 12.8 0 0 1-12.782933-12.782933v-13.038934a12.8 12.8 0 0 1 12.782933-12.782933h338.551467a12.8 12.8 0 0 1 12.782933 12.782933v13.038934a12.8 12.8 0 0 1-12.782933 12.782933z m-338.551467-28.381867a2.542933 2.542933 0 0 0-2.542933 2.542934v13.038933a2.542933 2.542933 0 0 0 2.542933 2.542933h338.551467a2.542933 2.542933 0 0 0 2.542933-2.542933v-13.038933a2.542933 2.542933 0 0 0-2.542933-2.542934z" fill="#E8D4AB" p-id="20745"></path><path d="M149.265067 284.893867l505.070933 0 0 386.048-505.070933 0 0-386.048Z" fill="#D5382E" p-id="20746"></path><path d="M620.561067 676.061867H183.04a38.946133 38.946133 0 0 1-38.894933-38.894934V318.685867a38.946133 38.946133 0 0 1 38.894933-38.894934h437.521067a38.946133 38.946133 0 0 1 38.894933 38.894934v318.481066a38.946133 38.946133 0 0 1-38.894933 38.894934z m-437.521067-386.048a28.689067 28.689067 0 0 0-28.654933 28.654933v318.498133a28.689067 28.689067 0 0 0 28.654933 28.654934h437.521067a28.689067 28.689067 0 0 0 28.654933-28.654934V318.685867a28.689067 28.689067 0 0 0-28.654933-28.654934z" fill="#E8D4AB" p-id="20747"></path><path d="M550.229333 194.816l318.481067 0 0 601.582933-318.481067 0 0-601.582933Z" fill="#D5382E" p-id="20748"></path><path d="M583.304533 796.398933a33.160533 33.160533 0 0 1-33.0752-33.0752V227.874133a33.160533 33.160533 0 0 1 33.0752-33.0752h252.347734A33.160533 33.160533 0 0 1 868.693333 227.874133" fill="#FF4743" p-id="20749"></path><path d="M835.652267 803.2256H583.304533a39.936 39.936 0 0 1-39.8848-39.8848V227.874133a39.936 39.936 0 0 1 39.901867-39.8848h252.330667A39.936 39.936 0 0 1 875.52 227.874133v535.466667a39.936 39.936 0 0 1-39.867733 39.8848zM583.304533 201.642667a26.2656 26.2656 0 0 0-26.231466 26.248533v535.4496a26.2656 26.2656 0 0 0 26.248533 26.248533h252.330667A26.2656 26.2656 0 0 0 861.866667 763.3408V227.874133a26.2656 26.2656 0 0 0-26.231467-26.231466z" fill="#E8D4AB" p-id="20750"></path><path d="M634.6752 190.8224l149.589333 0 0 33.518933-149.589333 0 0-33.518933Z" fill="#E8D4AB" p-id="20751"></path></svg>