<?xml version="1.0" standalone="no"?><!DOCTYPE svg PUBLIC "-//W3C//DTD SVG 1.1//EN" "http://www.w3.org/Graphics/SVG/1.1/DTD/svg11.dtd"><svg t="1556009157363" class="icon" style="" viewBox="0 0 1024 1024" version="1.1" xmlns="http://www.w3.org/2000/svg" p-id="7568" xmlns:xlink="http://www.w3.org/1999/xlink" width="200" height="200"><defs><style type="text/css"></style></defs><path d="M728.064 953.856H85.504c-47.104 0-85.504-38.4-85.504-85.504V506.368c0-47.104 38.4-85.504 85.504-85.504h642.56c47.104 0 85.504 38.4 85.504 85.504v362.496c0 46.592-38.4 84.992-85.504 84.992zM85.504 484.864c-11.776 0-21.504 9.728-21.504 21.504v362.496c0 11.776 9.728 21.504 21.504 21.504h642.56c11.776 0 21.504-9.728 21.504-21.504V506.368c0-11.776-9.728-21.504-21.504-21.504H85.504z" fill="#333333" p-id="7569"></path><path d="M991.744 838.144c-5.632 0-11.264-1.536-15.872-4.096l-205.312-118.784c-9.728-5.632-15.872-16.384-15.872-27.648s6.144-22.016 15.872-27.648l205.312-118.784c9.728-5.632 22.016-5.632 32.256 0 9.728 5.632 15.872 16.384 15.872 27.648v237.568c0 11.264-6.144 22.016-15.872 27.648-5.12 2.56-10.752 4.096-16.384 4.096z m-141.312-151.04l109.568 62.976v-126.464l-109.568 63.488zM239.616 436.736c-77.312 0-140.288-62.976-140.288-140.288s62.976-140.288 140.288-140.288 140.288 62.976 140.288 140.288-62.976 140.288-140.288 140.288z m0-216.064c-41.984 0-76.288 34.304-76.288 76.288s34.304 76.288 76.288 76.288S315.904 338.944 315.904 296.96 281.6 220.672 239.616 220.672z" fill="#333333" p-id="7570"></path><path d="M530.944 436.736c-100.864 0-183.296-82.432-183.296-183.296s81.92-183.296 183.296-183.296 183.296 82.432 183.296 183.296-82.432 183.296-183.296 183.296z m0-302.592c-65.536 0-119.296 53.76-119.296 119.296s53.248 119.296 119.296 119.296S650.24 319.488 650.24 253.44s-53.76-119.296-119.296-119.296z" fill="#333333" p-id="7571"></path></svg>