<?xml version="1.0" standalone="no"?><!DOCTYPE svg PUBLIC "-//W3C//DTD SVG 1.1//EN" "http://www.w3.org/Graphics/SVG/1.1/DTD/svg11.dtd"><svg t="1556009342424" class="icon" style="" viewBox="0 0 1024 1024" version="1.1" xmlns="http://www.w3.org/2000/svg" p-id="17191" xmlns:xlink="http://www.w3.org/1999/xlink" width="200" height="200"><defs><style type="text/css"></style></defs><path d="M689.017054 905.724031H334.982946c-4.762791 0-9.525581-2.381395-12.700775-6.350388-3.175194-3.968992-3.968992-9.525581-2.381396-14.288372l31.751938-103.193798c2.381395-6.350388 7.937984-11.113178 15.082171-11.113178h290.530232c7.144186 0 13.494574 4.762791 15.082171 11.113178l31.751938 103.193798c1.587597 4.762791 0.793798 10.31938-2.381396 14.288372s-7.937984 6.350388-12.700775 6.350388z m-332.60155-31.751938h311.168992l-22.226356-71.44186H378.64186l-22.226356 71.44186z" p-id="17192"></path><path d="M970.021705 802.530233H53.978295c-8.731783 0-15.875969-7.144186-15.875969-15.875969V15.875969c0-8.731783 7.144186-15.875969 15.875969-15.875969h915.249612c8.731783 0 15.875969 7.144186 15.875969 15.875969v770.778295c0.793798 8.731783-6.350388 15.875969-15.082171 15.875969z m-900.167441-31.751938h883.497674V31.751938H69.854264v739.026357z" p-id="17193"></path><path d="M888.260465 627.100775H135.739535c-4.762791 0-7.937984-3.175194-7.937985-7.937984V100.812403c0-4.762791 3.175194-7.937984 7.937985-7.937984h753.314729c4.762791 0 7.937984 3.175194 7.937984 7.937984v518.350388c-0.793798 4.762791-3.968992 7.937984-8.731783 7.937984z m-744.582946-15.875969h737.43876V108.750388H143.677519v502.474418zM758.077519 907.311628v84.936434H265.922481v-84.936434h492.155038m0-31.751938H265.922481c-17.463566 0-31.751938 14.288372-31.751938 31.751938v84.936434c0 17.463566 14.288372 31.751938 31.751938 31.751938h492.155038c17.463566 0 31.751938-14.288372 31.751938-31.751938v-84.936434c0-17.463566-14.288372-31.751938-31.751938-31.751938z" p-id="17194"></path><path d="M415.950388 479.454264H257.984496c-4.762791 0-7.937984-3.175194-7.937984-7.937985s3.175194-7.937984 7.937984-7.937984h153.996899l92.874419-96.843411c1.587597-1.587597 3.175194-2.381395 5.556589-2.381396 2.381395 0 3.968992 0.793798 5.556589 2.381396l63.503876 65.885271 180.986047-188.924031c3.175194-3.175194 7.937984-3.175194 11.113178 0 3.175194 3.175194 3.175194 7.937984 0 11.113178L585.029457 449.289922c-3.175194 3.175194-8.731783 3.175194-11.113178 0l-63.503876-65.885271-88.905426 93.668217c-1.587597 1.587597-3.968992 2.381395-5.556589 2.381396zM512 739.026357c-24.607752 0-45.246512-19.844961-45.246512-45.246512 0-24.607752 19.844961-45.246512 45.246512-45.246512 24.607752 0 45.246512 19.844961 45.246512 45.246512s-20.63876 45.246512-45.246512 45.246512z m0-74.617055c-15.875969 0-29.370543 13.494574-29.370543 29.370543s13.494574 29.370543 29.370543 29.370543 29.370543-13.494574 29.370543-29.370543-13.494574-29.370543-29.370543-29.370543z" p-id="17195"></path></svg>