<?xml version="1.0" standalone="no"?><!DOCTYPE svg PUBLIC "-//W3C//DTD SVG 1.1//EN" "http://www.w3.org/Graphics/SVG/1.1/DTD/svg11.dtd"><svg t="1556009366709" class="icon" style="" viewBox="0 0 1024 1024" version="1.1" xmlns="http://www.w3.org/2000/svg" p-id="18279" xmlns:xlink="http://www.w3.org/1999/xlink" width="200" height="200"><defs><style type="text/css"></style></defs><path d="M509.145999 261.251096l3.815909 0 0 0c19.081591 0 38.163181 0 53.428863 3.815909 19.081591 0 34.347273 3.815909 53.428863 7.632841 76.327386 19.081591 137.38909 57.245795 152.653749 106.857726l167.919431-3.815909c11.44875 0 22.898523 11.44875 22.898523 22.898523 0 3.815909-3.815909 7.632841-3.815909 11.44875l0 0-198.450794 335.838861c-3.815909 7.632841-11.44875 11.44875-19.081591 11.44875l0 0L509.145999 757.376547l0-45.796022 221.348294 0 167.919431-290.042839-137.38909 0c-15.265682 3.815909-22.898523-3.815909-26.714432-19.081591-3.815909-34.347273-53.428863-68.694545-125.939317-83.960227-15.265682-3.815909-30.53034-7.632841-45.796022-7.632841-19.081591-3.815909-34.347273-3.815909-49.612954-3.815909l0 0-3.815909 0 0 0L509.145999 261.251096 509.145999 261.251096zM509.145999 757.37757 276.347932 757.37757c-7.632841 0-15.265682-7.632841-19.081591-15.265682l-3.815909 0 0 0c3.815909 0 3.815909 0 3.815909 0l-3.815909-3.815909L253.450433 654.335752l34.347273 57.245795 221.348294 0L509.145999 757.37757 509.145999 757.37757zM253.450433 360.477005c7.632841-11.44875 15.265682-19.081591 22.898523-26.714432 45.796022-41.980113 133.572158-72.510454 232.798067-72.510454l0 45.796022c-87.776136 0-164.103522 22.898523-202.266703 57.245795-3.815909 7.632841-11.44875 15.265682-15.265682 19.081591-3.815909 7.632841-3.815909 15.265682-7.632841 19.081591l0 0 0 0 0 0c0 11.44875-11.44875 22.898523-22.898523 19.081591l-7.632841 0L253.450433 360.477005zM253.450433 742.111888 62.632479 410.088936c-7.632841-7.632841-3.815909-22.898523 7.632841-30.53034 3.815909 0 7.632841-3.815909 11.44875-3.815909l0 0 164.103522 3.815909c3.815909-7.632841 3.815909-11.44875 7.632841-19.081591l0 0 0 61.061704-133.572158 0L253.450433 654.335752l0 83.960227 0-3.815909C253.450433 738.295979 253.450433 738.295979 253.450433 742.111888L253.450433 742.111888z" p-id="18280"></path></svg>