<?xml version="1.0" standalone="no"?><!DOCTYPE svg PUBLIC "-//W3C//DTD SVG 1.1//EN" "http://www.w3.org/Graphics/SVG/1.1/DTD/svg11.dtd"><svg t="1554824142197" class="icon" style="" viewBox="0 0 1024 1024" version="1.1" xmlns="http://www.w3.org/2000/svg" p-id="1483" xmlns:xlink="http://www.w3.org/1999/xlink" width="200" height="200"><defs><style type="text/css"></style></defs><path d="M945.4 675.8l-112.8-66.3c-3.2-1.8-6.7-2.4-10.1-2-4.9 0.6-9.4 3.4-12 7.9L671.7 855.1c-2.8 4.8-3.6 10.5-2.4 15.9l23 75.9c1.9 8.3 9.7 13.5 17.8 12.5 1-0.1 1.9-0.3 2.9-0.6l86.9-11.4c5.3-1.6 9.7-5.2 12.5-9.9l139-239.5c4.5-7.8 1.8-17.8-6-22.2z m-39.6 25.7L784 911.4c-0.5 0.9-1.4 1.6-2.5 2l-55.6 6c-2.4 0.8-5-0.7-5.5-3.2L707.6 870c-0.2-1.1-0.1-2.2 0.5-3.2l122-210.2c1.3-2.2 4-2.9 6.2-1.7l68 40.6c2 1.2 2.7 3.9 1.5 6zM717.7 642.7c7.5-10.9 4.7-25.9-6.3-33.4-35.6-24.4-75.9-41-120.4-49.9 96.6-36.6 165.2-130 165.2-239.4 0-141.3-114.6-255.9-255.9-255.9s-255.9 114.7-255.9 256c0 111.6 71.4 206.5 171 241.5-45.4 9.4-87.3 25.7-125.4 48.8-51 31-94.9 74.1-130.4 128.1-59.9 91.1-75.1 181.2-75.7 185l-1.3 8.3c-2 13.1 7 25.4 20.1 27.4 1.2 0.2 2.5 0.3 3.7 0.3 11.6 0 21.9-8.5 23.7-20.4l1.2-8c0.5-2.9 14.8-84.7 68.4-166.3C271.6 655.5 376.8 600 512.3 600c66.7 0 124.6 16.5 172.1 48.9 10.9 7.6 25.8 4.8 33.3-6.2zM292.4 320.1c0-55.5 21.6-107.7 60.9-147s91.5-60.9 147-60.9 107.7 21.6 147 60.9 60.9 91.5 60.9 147-21.6 107.7-60.9 147-91.5 60.9-147 60.9-107.7-21.6-147-60.9-60.9-91.4-60.9-147z" p-id="1484" fill="#ffa31a"></path></svg>